<?xml version="1.0" encoding="UTF-8" standalone="no"?>
<svg
   xmlns:dc="http://purl.org/dc/elements/1.1/"
   xmlns:cc="http://creativecommons.org/ns#"
   xmlns:rdf="http://www.w3.org/1999/02/22-rdf-syntax-ns#"
   xmlns:svg="http://www.w3.org/2000/svg"
   xmlns="http://www.w3.org/2000/svg"
   xmlns:sodipodi="http://sodipodi.sourceforge.net/DTD/sodipodi-0.dtd"
   xmlns:inkscape="http://www.inkscape.org/namespaces/inkscape"
   width="200"
   height="200"
   viewBox="0 0 52.916668 52.916666"
   version="1.1"
   id="svg8"
   inkscape:version="1.0.1 (3bc2e813f5, 2020-09-07)"
   sodipodi:docname="change.svg">
  <defs
     id="defs2">
    <inkscape:path-effect
       effect="envelope"
       id="path-effect4658"
       is_visible="true"
       yy="true"
       xx="true"
       bendpath1="m -199.08406,108.42369 h 7.0057"
       bendpath2="m -192.07836,108.42369 v 6.75242"
       bendpath3="m -199.08406,115.17611 h 7.0057"
       bendpath4="m -199.08406,108.42369 v 6.75242" />
    <inkscape:path-effect
       effect="bend_path"
       id="path-effect4656"
       is_visible="true"
       bendpath="m -192.00142,114.60623 c 2.12577,-0.53066 4.48261,0.85111 7.0057,0"
       prop_scale="1"
       scale_y_rel="false"
       vertical="false"
       bendpath-nodetypes="cc" />
    <inkscape:path-effect
       effect="bounding_box"
       id="path-effect4654"
       is_visible="true"
       linkedpath=""
       visualbounds="false" />
  </defs>
  <sodipodi:namedview
     id="base"
     pagecolor="#ffffff"
     bordercolor="#666666"
     borderopacity="1.0"
     inkscape:pageopacity="0.0"
     inkscape:pageshadow="2"
     inkscape:zoom="2.8284271"
     inkscape:cx="101.85535"
     inkscape:cy="100.4982"
     inkscape:document-units="px"
     inkscape:current-layer="g5375"
     showgrid="false"
     fit-margin-top="0"
     fit-margin-left="0"
     fit-margin-right="0"
     fit-margin-bottom="0"
     inkscape:window-width="1920"
     inkscape:window-height="1001"
     inkscape:window-x="-9"
     inkscape:window-y="46"
     inkscape:window-maximized="1"
     showguides="false"
     inkscape:object-nodes="true"
     units="px"
     inkscape:snap-page="true"
     inkscape:document-rotation="0" />
  <metadata
     id="metadata5">
    <rdf:RDF>
      <cc:Work
         rdf:about="">
        <dc:format>image/svg+xml</dc:format>
        <dc:type
           rdf:resource="http://purl.org/dc/dcmitype/StillImage" />
        <dc:title></dc:title>
      </cc:Work>
    </rdf:RDF>
  </metadata>
  <g
     inkscape:label="Layer 1"
     inkscape:groupmode="layer"
     id="layer1"
     transform="translate(98.048812,-95.14345)">
    <g
       style="stroke-width:0.5"
       id="g5375"
       transform="matrix(2,0,0,2,-98.048812,95.143449)">
      <rect
         ry="1.984375"
         rx="1.984375"
         style="opacity:1;fill:#222222;fill-opacity:1;fill-rule:nonzero;stroke:none;stroke-width:0.25;stroke-linecap:butt;stroke-linejoin:round;stroke-miterlimit:4;stroke-dasharray:none;stroke-dashoffset:0;stroke-opacity:0.90944878;paint-order:normal"
         id="rect5363"
         width="26.458334"
         height="26.458334"
         x="0"
         y="-1.110223e-16" />
      <rect
         ry="1.3229166"
         rx="1.3229166"
         y="1.322917"
         x="1.322917"
         height="23.8125"
         width="23.8125"
         id="rect5365"
         style="opacity:1;fill:#ea90ab;fill-opacity:1;fill-rule:nonzero;stroke:none;stroke-width:0.25;stroke-linecap:butt;stroke-linejoin:round;stroke-miterlimit:4;stroke-dasharray:none;stroke-dashoffset:0;stroke-opacity:0.90944878;paint-order:normal" />
      <path
         inkscape:connector-curvature="0"
         style="font-style:normal;font-variant:normal;font-weight:bold;font-stretch:normal;font-size:4.23333px;line-height:4.23333px;font-family:Montserrat;-inkscape-font-specification:'Montserrat Bold';text-align:center;text-anchor:middle;opacity:1;fill:#222222;fill-opacity:1;fill-rule:nonzero;stroke:none;stroke-width:0.25;stroke-linecap:butt;stroke-linejoin:round;stroke-miterlimit:4;stroke-dasharray:none;stroke-dashoffset:0;stroke-opacity:0.909449;paint-order:normal"
         d="m 11.516405,2.797587 a 0.15871531,0.15871531 0 0 0 -0.136382,0.1146841 0.15871531,0.15871531 0 0 0 0,0.00252 C 10.852052,2.9892981 10.353207,3.3161399 9.8996557,4.0418044 9.4230809,4.8172423 9.06396,5.9308318 8.7887606,7.31746 7.4924659,6.8691787 6.3649138,6.6170591 5.4523524,6.6330682 4.4932015,6.6500066 3.8263135,6.89528 3.5262615,7.420367 a 0.15871531,0.15871531 0 0 0 0,0.00253 C 3.4229381,7.6107373 3.3719019,7.8242651 3.3719019,8.0576973 c 0,0.421016 0.1552856,0.8916088 0.4475822,1.4177576 0.4325522,0.8000721 1.2077345,1.6567081 2.2422503,2.5652261 -1.0505355,0.923913 -1.835515,1.786695 -2.2682869,2.580106 a 0.15871531,0.15871531 0 0 0 0,0.002 c -0.2751035,0.525219 -0.4215456,0.985636 -0.4215456,1.389797 0,0.233551 0.051235,0.447071 0.1543596,0.634798 a 0.15871531,0.15871531 0 0 0 0,0.0025 c 0.291392,0.51696 0.943761,0.76571 1.8864158,0.799077 a 0.15871531,0.15871531 0 0 0 0.00252,0 c 0.913796,0.02385 2.0535277,-0.233556 3.3717429,-0.69617 0.274133,1.348491 0.6233467,2.453038 1.0867195,3.235979 a 0.15871531,0.15871531 0 0 0 0,0.002 c 0.5003173,0.825526 1.0505893,1.281995 1.6589053,1.281995 0.601455,0 1.143393,-0.456503 1.635346,-1.281995 a 0.15871531,0.15871531 0 0 0 0,-0.002 c 0.463775,-0.783621 0.815602,-1.8883 1.089818,-3.238461 1.329834,0.457616 2.472598,0.710991 3.381042,0.686874 0.941434,-0.02479 1.593573,-0.269105 1.885796,-0.78482 v -0.0025 c 0.112869,-0.188986 0.168618,-0.409658 0.168618,-0.651537 0,-0.404148 -0.146131,-0.860011 -0.421545,-1.377461 a 0.15871531,0.15871531 0 0 0 0,-0.0025 c -0.442824,-0.797089 -1.233981,-1.657456 -2.293703,-2.579495 1.035751,-0.909437 1.822656,-1.768065 2.270146,-2.5751455 h -0.0025 c 0.292427,-0.5180302 0.447581,-0.9804659 0.447581,-1.3941991 0,-0.2419358 -0.05577,-0.4625696 -0.168619,-0.6515356 C 19.223677,6.8933848 18.555233,6.649782 17.589136,6.6331253 16.67895,6.6169063 15.549285,6.8692235 14.250249,7.3150375 13.975125,5.9301314 13.618618,4.8166353 13.142452,4.0418608 12.650435,3.2412886 12.117821,2.7976819 11.532522,2.7976819 a 0.15871531,0.15871531 0 0 0 -0.01612,0 z m 0.01612,0.9373179 c 0.150341,0 0.307715,0.067598 0.482918,0.2318503 0.175201,0.1642515 0.359965,0.4245219 0.545527,0.7798594 0.346282,0.6549207 0.623917,1.6375591 0.838751,2.868368 C 12.774744,7.8552695 12.152976,8.1263653 11.535008,8.4326568 10.901127,8.1253602 10.26958,7.855934 9.6417749,7.6149826 9.8566087,6.3841737 10.134245,5.4015353 10.480526,4.7466146 10.665876,4.3916909 10.852296,4.1308832 11.031014,3.9667552 11.209731,3.8026258 11.372166,3.7349049 11.532529,3.7349049 Z M 5.475295,7.48046 C 5.566395,7.47931 5.6625362,7.481095 5.7641775,7.48611 6.5115863,7.523914 7.4825967,7.7733256 8.620147,8.1909592 8.5207101,8.8565901 8.4462696,9.5355551 8.4000759,10.2274 7.8202945,10.618872 7.2709264,11.022751 6.7504697,11.441186 5.8126396,10.665014 5.1079135,9.9475437 4.7003947,9.3136215 a 0.15871531,0.15871531 0 0 0 0,-0.00253 C 4.479695,8.9721681 4.3451986,8.6800921 4.2924887,8.441976 4.2397775,8.2038576 4.2631945,8.0268559 4.3489063,7.8840477 a 0.15871531,0.15871531 0 0 0 0.00252,-0.00253 c 0.077723,-0.136799 0.2165721,-0.242541 0.4500609,-0.3136844 0.1751178,-0.053358 0.4005682,-0.083788 0.673853,-0.0874 z m 12.103308,0 c 0.27339,0.00358 0.499448,0.033915 0.676333,0.0874 0.234474,0.070887 0.376968,0.1768773 0.45874,0.313679 0.08224,0.1423488 0.106741,0.319181 0.05208,0.5579283 -0.05467,0.2387485 -0.192044,0.5324908 -0.412866,0.8716062 a 0.15871531,0.15871531 0 0 0 0,0.00253 C 17.945501,9.9548637 17.236405,10.676457 16.291035,11.452951 15.770229,11.034222 15.222265,10.628386 14.642049,10.23667 14.595599,9.5383575 14.515812,8.8566181 14.409579,8.190934 15.547107,7.7734458 16.523907,7.5241479 17.287246,7.4860849 h 0.002 c 0.10164,-0.00496 0.198374,-0.00669 0.289502,-0.00565 z m -4.035677,1.0433264 c 0.04584,0.3539495 0.08088,0.7148688 0.112198,1.0798995 -0.175573,-0.108229 -0.351341,-0.216193 -0.526931,-0.327937 a 0.15871531,0.15871531 0 0 0 -0.0069,-0.00427 C 12.926149,9.1630193 12.739767,9.0634254 12.55168,8.96214 12.885638,8.8092255 13.216386,8.662179 13.542931,8.5238553 Z m -4.0418731,0.00935 C 9.8276267,8.6667551 10.158232,8.8126743 10.492306,8.9645985 10.306258,9.0657767 10.122079,9.1656208 9.9325167,9.2739374 a 0.15871531,0.15871531 0 0 0 -0.0049,0.00196 C 9.7447617,9.3888469 9.5657099,9.4969519 9.386432,9.6063169 9.417812,9.2420789 9.455202,8.8826632 9.5011159,8.5332359 Z m 2.0060591,0.9373174 c 0.380181,0.198616 0.7604,0.4008009 1.140651,0.6137212 0.371731,0.21239 0.734257,0.434199 1.091678,0.660833 0.02131,0.42509 0.03285,0.856072 0.03285,1.295632 0,0.432446 -0.01154,0.861141 -0.03285,1.286334 -0.349844,0.226046 -0.713033,0.446287 -1.091678,0.658356 a 0.15871531,0.15871531 0 0 0 -0.0025,0.0025 c -0.371353,0.219764 -0.744001,0.424638 -1.115214,0.623009 -0.383491,-0.197657 -0.757492,-0.404235 -1.119574,-0.62302 a 0.15871531,0.15871531 0 0 0 -0.0074,-0.0025 c -0.386187,-0.212008 -0.7510448,-0.432481 -1.1010593,-0.658357 -0.014251,-0.425344 -0.021077,-0.853753 -0.021077,-1.286334 0,-0.43968 0.00695,-0.870323 0.021076,-1.295631 0.3576325,-0.22649 0.7242423,-0.448455 1.1034553,-0.660834 a 0.15871531,0.15871531 0 0 0 0.0025,0 c 0.36309,-0.2117503 0.728983,-0.4160618 1.099124,-0.6137008 z m 0.02542,1.4853272 c -0.188874,0 -0.370799,0.04999 -0.53871,0.143202 -0.171397,0.08681 -0.308421,0.221062 -0.402947,0.391169 -0.09393,0.16904 -0.143201,0.354836 -0.143201,0.550488 0,0.188829 0.04989,0.373214 0.143201,0.541191 a 0.15871531,0.15871531 0 0 0 0.0025,0.0025 c 0.09539,0.162205 0.231864,0.293164 0.400468,0.38683 0.16796,0.09331 0.34988,0.142581 0.538711,0.142581 0.182147,0 0.360733,-0.04998 0.52755,-0.142581 0.168606,-0.09366 0.305066,-0.224631 0.400467,-0.38683 a 0.15871531,0.15871531 0 0 0 0.0025,-0.0025 c 0.0933,-0.167972 0.142582,-0.352359 0.142582,-0.541191 0,-0.195699 -0.04866,-0.381459 -0.142582,-0.550488 -0.09453,-0.170196 -0.23158,-0.30436 -0.402946,-0.391168 -0.166866,-0.09271 -0.345443,-0.143203 -0.52755,-0.143203 z m -3.18391,0.440762 c -0.00372,0.214088 -0.00744,0.42643 -0.00744,0.644097 0,0.211732 0.00372,0.42303 0.00744,0.634798 C 8.0452782,12.466905 7.7488549,12.256327 7.4677165,12.04064 7.7490408,11.820035 8.0450371,11.606315 8.348622,11.396543 Z m 6.346734,0 c 0.305228,0.210184 0.604168,0.422996 0.890825,0.644097 -0.286462,0.216167 -0.585836,0.425848 -0.890825,0.634798 0.0071,-0.211604 0.01673,-0.42321 0.01673,-0.634798 0,-0.217475 -0.0095,-0.430149 -0.01673,-0.644097 z M 6.74117,12.628954 c 0.5275631,0.418627 1.0784643,0.823966 1.6589043,1.215663 0.046328,0.690981 0.1207679,1.369074 0.2200723,2.033955 -1.160654,0.425172 -2.144836,0.675309 -2.8913055,0.705469 -0.3985334,0.01575 -0.7141889,-0.01564 -0.9441376,-0.08679 -0.22995,-0.07117 -0.3674923,-0.175862 -0.4451026,-0.309338 -0.077459,-0.133249 -0.1000485,-0.305756 -0.047109,-0.541191 0.052927,-0.235436 0.1829922,-0.527858 0.3961295,-0.867268 a 0.15871531,0.15871531 0 0 0 0.00252,-0.002 C 5.0744232,14.146196 5.7811026,13.42042 6.7412156,12.628842 Z m 9.559159,0 c 0.96081,0.791844 1.672955,1.518278 2.064332,2.150501 a 0.15871531,0.15871531 0 0 0 0,0.0025 c 0.216984,0.339287 0.350189,0.630109 0.402948,0.864788 0.05275,0.234678 0.02916,0.405389 -0.05146,0.538709 a 0.15871531,0.15871531 0 0 0 0,0.0025 c -0.07762,0.13351 -0.217644,0.238174 -0.447582,0.309342 -0.229941,0.07116 -0.545612,0.102585 -0.944138,0.08679 -0.746585,-0.0301 -1.734583,-0.280105 -2.903084,-0.70547 0.09934,-0.664867 0.1745,-1.342932 0.220691,-2.033956 0.580438,-0.391713 1.13072,-0.797047 1.658285,-1.215663 z m -6.9139571,1.83434 c 0.179297,0.11221 0.3562558,0.226872 0.5461488,0.335376 0.1839633,0.108171 0.3722503,0.208311 0.5597873,0.30934 -0.334633,0.153247 -0.6665403,0.299067 -0.9937311,0.437665 -0.04593,-0.354709 -0.08083,-0.716546 -0.112201,-1.082381 z m 4.2687641,0.0025 c -0.03133,0.365031 -0.06636,0.72595 -0.11221,1.079899 -0.326544,-0.138319 -0.657293,-0.284745 -0.991251,-0.437662 0.188098,-0.101294 0.374478,-0.200883 0.569706,-0.30934 a 0.15871531,0.15871531 0 0 0 0.002,-0.0025 c 0.182513,-0.107351 0.356337,-0.219479 0.531892,-0.330417 z m -2.148022,1.171648 c 0.628415,0.308237 1.259677,0.581275 1.895094,0.829451 -0.207335,1.202298 -0.481959,2.171876 -0.829453,2.844193 a 0.15871531,0.15871531 0 0 0 0,0.0025 c -0.181416,0.35889 -0.367022,0.621578 -0.543668,0.787298 -0.176647,0.165722 -0.336712,0.234331 -0.496555,0.234331 -0.164814,0 -0.330248,-0.07084 -0.510813,-0.23681 -0.180567,-0.165946 -0.367644,-0.428443 -0.552968,-0.787269 -0.347492,-0.672316 -0.6221173,-1.641893 -0.829453,-2.84419 0.625889,-0.247398 1.248883,-0.522441 1.867816,-0.829454 z"
         id="text5407" />
      <path
         inkscape:connector-curvature="0"
         id="path5369"
         d="m 0.72760492,18.520836 v 4.167188 c 0,1.539081 1.23904398,2.778124 2.77812498,2.778124 H 22.952604 c 1.539081,0 2.778125,-1.239043 2.778125,-2.778124 v -4.167188 z"
         style="opacity:1;fill:#222222;fill-opacity:1;fill-rule:nonzero;stroke:none;stroke-width:0.24999997;stroke-linecap:butt;stroke-linejoin:round;stroke-miterlimit:4;stroke-dasharray:none;stroke-dashoffset:0;stroke-opacity:0.90944878;paint-order:normal" />
      <text
         xml:space="preserve"
         style="font-size:4.23333px;line-height:1.25;font-family:sans-serif;text-align:center;text-anchor:middle;stroke-width:0.0661458"
         x="13.147373"
         y="23.382217"
         id="text2149"><tspan
           sodipodi:role="line"
           id="tspan2147"
           x="13.147373"
           y="23.382217"
           style="fill:#ffffff;stroke-width:0.0661458">PROGRESS</tspan></text>
    </g>
    <text
       xml:space="preserve"
       style="font-style:normal;font-variant:normal;font-weight:500;font-stretch:normal;font-size:8.46667px;line-height:4.23333px;font-family:Montserrat;-inkscape-font-specification:'Montserrat Medium';text-align:center;text-anchor:middle;opacity:1;fill:#eeeeee;fill-opacity:1;fill-rule:nonzero;stroke:none;stroke-width:4.23333;stroke-linecap:butt;stroke-linejoin:round;stroke-miterlimit:4;stroke-dasharray:none;stroke-dashoffset:0;stroke-opacity:1;paint-order:stroke fill markers"
       x="-355.53735"
       y="24.113144"
       id="text4627-36-3"><tspan
         sodipodi:role="line"
         id="tspan4625-0-6"
         x="-355.53735"
         y="24.113144"
         style="font-style:normal;font-variant:normal;font-weight:500;font-stretch:normal;font-size:8.46667px;font-family:Montserrat;-inkscape-font-specification:'Montserrat Medium';text-align:center;text-anchor:middle;fill:#eeeeee;fill-opacity:1;stroke-width:4.23333">ORD</tspan></text>
  </g>
</svg>
